<?xml version="1.0" encoding="iso-8859-1"?>
<!-- Generator: Adobe Illustrator 19.0.0, SVG Export Plug-In . SVG Version: 6.00 Build 0)  -->
<svg version="1.1" id="Layer_1" xmlns="http://www.w3.org/2000/svg" xmlns:xlink="http://www.w3.org/1999/xlink" x="0px" y="0px"
	 viewBox="0 0 512.001 512.001" style="enable-background:new 0 0 512.001 512.001;" xml:space="preserve">
<g>
	<g>
		<path d="M116.572,395.439c-11.1-11.1-21.009-23.072-29.696-35.745l-73.322,73.322C4.814,441.757,0,453.377,0,465.737
			c0,12.361,4.814,23.98,13.554,32.721c9.022,9.022,20.869,13.532,32.721,13.532c11.849,0,23.702-4.512,32.722-13.532l73.322-73.322
			C139.644,416.449,127.672,406.54,116.572,395.439z"/>
	</g>
</g>
<g>
	<g>
		<path d="M447.839,64.172C406.465,22.797,351.453,0.012,292.941,0.012S179.417,22.797,138.043,64.173
			c-41.375,41.374-64.162,96.385-64.162,154.898c0,58.513,22.787,113.524,64.162,154.898
			c41.374,41.375,96.385,64.162,154.898,64.162c58.513,0,113.524-22.787,154.898-64.162c41.375-41.374,64.162-96.385,64.162-154.898
			S489.214,105.547,447.839,64.172z M292.941,396.318c-97.734,0-177.247-79.514-177.247-177.247S195.206,41.823,292.941,41.823
			c97.734,0,177.247,79.514,177.247,177.247S390.675,396.318,292.941,396.318z"/>
	</g>
</g>
<g>
	<g>
		<path d="M308.123,236.018v31.828c12.917-3.688,12.93-12.183,12.93-15.914C321.053,248.2,321.039,239.705,308.123,236.018z"/>
	</g>
</g>
<g>
	<g>
		<path d="M264.829,186.209c0,3.732,0.013,12.226,12.93,15.913v-31.828C264.842,173.983,264.829,182.479,264.829,186.209z"/>
	</g>
</g>
<g>
	<g>
		<path d="M292.941,78.83c-77.328,0-140.242,62.912-140.242,140.242s62.912,140.24,140.242,140.24
			c77.329,0,140.242-62.912,140.242-140.242S370.27,78.83,292.941,78.83z M331.978,213.906
			c12.715,8.484,19.437,21.632,19.437,38.026s-6.721,29.544-19.437,38.027c-6.595,4.4-14.589,7.354-23.857,8.855v13.819h-30.363
			v-13.819c-9.269-1.501-17.262-4.455-23.857-8.855c-12.715-8.484-19.437-21.633-19.437-38.027h30.363
			c0,3.732,0.013,12.226,12.93,15.914v-34.755c-9.268-1.501-17.262-4.456-23.857-8.855c-12.715-8.484-19.437-21.632-19.437-38.026
			c0-16.394,6.721-29.544,19.437-38.027c6.595-4.4,14.589-7.354,23.857-8.855v-13.819h30.363v13.819
			c9.269,1.501,17.262,4.455,23.857,8.855c12.715,8.484,19.437,21.633,19.437,38.027h-30.363c0-3.732-0.013-12.226-12.93-15.914
			v34.755C317.391,206.552,325.383,209.506,331.978,213.906z"/>
	</g>
</g>
<g>
</g>
<g>
</g>
<g>
</g>
<g>
</g>
<g>
</g>
<g>
</g>
<g>
</g>
<g>
</g>
<g>
</g>
<g>
</g>
<g>
</g>
<g>
</g>
<g>
</g>
<g>
</g>
<g>
</g>
</svg>
